<svg viewBox="-9979.75 -6497.549999999999 19959.5 12995.099999999999" xmlns="http://www.w3.org/2000/svg" style="width:100%;height:auto;display:block;">
  <path d="M 7731.3,-3851.9 L 7747.6,-3751.4 L 7764.6,-3647.6 L 7782.1,-3543.4 L 7799.6,-3439.2 L 7816.5,-3334.7 L 7832.9,-3231.2 L 7850.6,-3122.3 L 7870.8,-2997.3 L 7891.3,-2870.8 L 7905.4,-2783.3 L 7919.3,-2697.5 L 7937.3,-2586.4 L 7962.9,-2426.6 L 7983.4,-2299.4 L 7990.8,-2255.5" stroke="#FF8000" stroke-width="170" fill="none" stroke-linecap="round" stroke-linejoin="round" />
    <path d="M 7731.3,-3851.9 L 7747.6,-3751.4 L 7764.6,-3647.6 L 7782.1,-3543.4 L 7799.6,-3439.2 L 7816.5,-3334.7 L 7832.9,-3231.2 L 7850.6,-3122.3 L 7870.8,-2997.3 L 7891.3,-2870.8 L 7905.4,-2783.3 L 7919.3,-2697.5 L 7937.3,-2586.4 L 7962.9,-2426.6 L 7983.4,-2299.4 L 7990.8,-2255.5" stroke="#FAFAF7" stroke-width="34" fill="none" stroke-linecap="round" stroke-linejoin="round" />
    <path d="M 7990.8,-2255.5 L 8000.8,-2193.7 L 8017.6,-2088.8 L 8036.3,-1971.9 L 8052.8,-1866.3 L 8069.1,-1761.4 L 8086.9,-1643.4 L 8107.6,-1501.4 L 8124.3,-1385.8 L 8135.9,-1304.4 L 8146.4,-1230.6 L 8159.5,-1135.3 L 8173.8,-1031.7 L 8196.5,-864.5 L 8220.4,-689.0 L 8236.0,-573.8 L 8247.4,-490.1" stroke="#00A99D" stroke-width="170" fill="none" stroke-linecap="round" stroke-linejoin="round" />
    <path d="M 7990.8,-2255.5 L 8000.8,-2193.7 L 8017.6,-2088.8 L 8036.3,-1971.9 L 8052.8,-1866.3 L 8069.1,-1761.4 L 8086.9,-1643.4 L 8107.6,-1501.4 L 8124.3,-1385.8 L 8135.9,-1304.4 L 8146.4,-1230.6 L 8159.5,-1135.3 L 8173.8,-1031.7 L 8196.5,-864.5 L 8220.4,-689.0 L 8236.0,-573.8 L 8247.4,-490.1" stroke="#FAFAF7" stroke-width="34" fill="none" stroke-linecap="round" stroke-linejoin="round" />
    <path d="M 8247.4,-490.1 L 8258.8,-406.8 L 8271.3,-315.2 L 8286.3,-206.2 L 8304.4,-84.7 L 8324.5,36.3 L 8344.0,129.4 L 8363.4,195.6 L 8400.6,277.7 L 8463.1,358.3 L 8588.3,437.6 L 8654.8,464.9 L 8760.5,494.5 L 8861.5,533.5 L 8951.5,608.7 L 9007.3,702.5" stroke="#00A99D" stroke-width="170" fill="none" stroke-linecap="round" stroke-linejoin="round" />
    <path d="M 8247.4,-490.1 L 8258.8,-406.8 L 8271.3,-315.2 L 8286.3,-206.2 L 8304.4,-84.7 L 8324.5,36.3 L 8344.0,129.4 L 8363.4,195.6 L 8400.6,277.7 L 8463.1,358.3 L 8588.3,437.6 L 8654.8,464.9 L 8760.5,494.5 L 8861.5,533.5 L 8951.5,608.7 L 9007.3,702.5" stroke="#FAFAF7" stroke-width="34" fill="none" stroke-linecap="round" stroke-linejoin="round" />
    <path d="M 9007.3,702.5 L 9033.1,788.1 L 9052.0,888.1 L 9065.1,1001.6 L 9077.5,1119.9 L 9079.8,1187.9 L 9078.8,1291.6 L 9070.3,1391.5 L 9040.3,1529.1 L 9008.8,1635.6 L 8977.5,1703.2 L 8934.3,1785.2 L 8881.1,1873.4 L 8821.3,1957.1 L 8737.5,2050.9 L 8634.1,2153.7 L 8561.5,2217.8" stroke="#FF8000" stroke-width="170" fill="none" stroke-linecap="round" stroke-linejoin="round" />
    <path d="M 9007.3,702.5 L 9033.1,788.1 L 9052.0,888.1 L 9065.1,1001.6 L 9077.5,1119.9 L 9079.8,1187.9 L 9078.8,1291.6 L 9070.3,1391.5 L 9040.3,1529.1 L 9008.8,1635.6 L 8977.5,1703.2 L 8934.3,1785.2 L 8881.1,1873.4 L 8821.3,1957.1 L 8737.5,2050.9 L 8634.1,2153.7 L 8561.5,2217.8" stroke="#FAFAF7" stroke-width="34" fill="none" stroke-linecap="round" stroke-linejoin="round" />
    <path d="M 8561.5,2217.8 L 8500.3,2264.6 L 8432.5,2311.3 L 8344.0,2371.1 L 8240.3,2437.1 L 8141.9,2499.2 L 8067.3,2545.3 L 7993.0,2590.8 L 7906.9,2643.2 L 7799.8,2708.3 L 7683.0,2779.0 L 7589.3,2835.5 L 7527.4,2872.3 L 7462.9,2910.1 L 7372.3,2963.5 L 7285.1,3016.6" stroke="#FF8000" stroke-width="170" fill="none" stroke-linecap="round" stroke-linejoin="round" />
    <path d="M 8561.5,2217.8 L 8500.3,2264.6 L 8432.5,2311.3 L 8344.0,2371.1 L 8240.3,2437.1 L 8141.9,2499.2 L 8067.3,2545.3 L 7993.0,2590.8 L 7906.9,2643.2 L 7799.8,2708.3 L 7683.0,2779.0 L 7589.3,2835.5 L 7527.4,2872.3 L 7462.9,2910.1 L 7372.3,2963.5 L 7285.1,3016.6" stroke="#FAFAF7" stroke-width="34" fill="none" stroke-linecap="round" stroke-linejoin="round" />
    <path d="M 7285.1,3016.6 L 7203.0,3067.7 L 7120.8,3118.9 L 7038.8,3170.0 L 6956.5,3221.1 L 6874.4,3272.2 L 6792.3,3323.4 L 6670.4,3400.0 L 6521.0,3494.0 L 6403.3,3568.1 L 6345.3,3604.7 L 6300.5,3633.0 L 6227.8,3679.1 L 6131.3,3739.7 L 6036.8,3799.0 L 5947.3,3854.9 L 5857.5,3911.2" stroke="#FF8000" stroke-width="170" fill="none" stroke-linecap="round" stroke-linejoin="round" />
    <path d="M 7285.1,3016.6 L 7203.0,3067.7 L 7120.8,3118.9 L 7038.8,3170.0 L 6956.5,3221.1 L 6874.4,3272.2 L 6792.3,3323.4 L 6670.4,3400.0 L 6521.0,3494.0 L 6403.3,3568.1 L 6345.3,3604.7 L 6300.5,3633.0 L 6227.8,3679.1 L 6131.3,3739.7 L 6036.8,3799.0 L 5947.3,3854.9 L 5857.5,3911.2" stroke="#FAFAF7" stroke-width="34" fill="none" stroke-linecap="round" stroke-linejoin="round" />
    <path d="M 5857.5,3911.2 L 5767.5,3967.1 L 5676.9,4022.1 L 5586.1,4077.2 L 5494.8,4133.5 L 5403.8,4189.4 L 5313.1,4244.4 L 5219.3,4299.9 L 5122.8,4355.9 L 5028.1,4406.8 L 4931.8,4454.3 L 4834.8,4499.3 L 4737.9,4542.9 L 4638.6,4582.8 L 4524.8,4626.5 L 4367.6,4682.3 L 4216.0,4735.9" stroke="#FF8000" stroke-width="170" fill="none" stroke-linecap="round" stroke-linejoin="round" />
    <path d="M 5857.5,3911.2 L 5767.5,3967.1 L 5676.9,4022.1 L 5586.1,4077.2 L 5494.8,4133.5 L 5403.8,4189.4 L 5313.1,4244.4 L 5219.3,4299.9 L 5122.8,4355.9 L 5028.1,4406.8 L 4931.8,4454.3 L 4834.8,4499.3 L 4737.9,4542.9 L 4638.6,4582.8 L 4524.8,4626.5 L 4367.6,4682.3 L 4216.0,4735.9" stroke="#FAFAF7" stroke-width="34" fill="none" stroke-linecap="round" stroke-linejoin="round" />
    <path d="M 4216.0,4735.9 L 4161.8,4753.9 L 4114.8,4768.5 L 4036.7,4790.4 L 3933.8,4818.8 L 3825.0,4846.9 L 3720.1,4872.9 L 3615.1,4895.9 L 3510.0,4917.0 L 3404.8,4935.9 L 3299.0,4952.4 L 3192.3,4965.1 L 3087.8,4976.9 L 2978.6,4984.4 L 2843.1,4989.8 L 2673.8,4991.4" stroke="#FF8000" stroke-width="170" fill="none" stroke-linecap="round" stroke-linejoin="round" />
    <path d="M 4216.0,4735.9 L 4161.8,4753.9 L 4114.8,4768.5 L 4036.7,4790.4 L 3933.8,4818.8 L 3825.0,4846.9 L 3720.1,4872.9 L 3615.1,4895.9 L 3510.0,4917.0 L 3404.8,4935.9 L 3299.0,4952.4 L 3192.3,4965.1 L 3087.8,4976.9 L 2978.6,4984.4 L 2843.1,4989.8 L 2673.8,4991.4" stroke="#FAFAF7" stroke-width="34" fill="none" stroke-linecap="round" stroke-linejoin="round" />
    <path d="M 2673.8,4991.4 L 2564.0,4992.9 L 2511.8,4994.1 L 2452.0,4988.4 L 2351.2,4974.0 L 2161.8,4945.4 L 2021.1,4923.1 L 1977.3,4914.0 L 1922.1,4897.9 L 1812.6,4865.6 L 1701.0,4828.5 L 1578.5,4784.5 L 1432.8,4730.6 L 1363.8,4701.4 L 1264.0,4656.3 L 1160.6,4606.9 L 1041.5,4556.5" stroke="#00A99D" stroke-width="170" fill="none" stroke-linecap="round" stroke-linejoin="round" />
    <path d="M 2673.8,4991.4 L 2564.0,4992.9 L 2511.8,4994.1 L 2452.0,4988.4 L 2351.2,4974.0 L 2161.8,4945.4 L 2021.1,4923.1 L 1977.3,4914.0 L 1922.1,4897.9 L 1812.6,4865.6 L 1701.0,4828.5 L 1578.5,4784.5 L 1432.8,4730.6 L 1363.8,4701.4 L 1264.0,4656.3 L 1160.6,4606.9 L 1041.5,4556.5" stroke="#FAFAF7" stroke-width="34" fill="none" stroke-linecap="round" stroke-linejoin="round" />
    <path d="M 1041.5,4556.5 L 930.1,4529.8 L 847.8,4535.9 L 763.6,4574.4 L 628.8,4609.8 L 552.5,4603.0 L 431.5,4569.8 L 322.0,4551.5 L 267.3,4555.8 L 166.0,4569.3 L 66.3,4590.9 L -33.2,4621.4 L -132.9,4650.8 L -246.0,4681.6 L -370.0,4717.9 L -494.2,4761.8" stroke="#FF8000" stroke-width="170" fill="none" stroke-linecap="round" stroke-linejoin="round" />
    <path d="M 1041.5,4556.5 L 930.1,4529.8 L 847.8,4535.9 L 763.6,4574.4 L 628.8,4609.8 L 552.5,4603.0 L 431.5,4569.8 L 322.0,4551.5 L 267.3,4555.8 L 166.0,4569.3 L 66.3,4590.9 L -33.2,4621.4 L -132.9,4650.8 L -246.0,4681.6 L -370.0,4717.9 L -494.2,4761.8" stroke="#FAFAF7" stroke-width="34" fill="none" stroke-linecap="round" stroke-linejoin="round" />
    <path d="M -494.2,4761.8 L -604.7,4805.8 L -686.5,4841.9 L -738.0,4870.0 L -811.5,4911.6 L -903.9,4964.0 L -996.4,5013.6 L -1090.0,5061.1 L -1186.5,5104.0 L -1288.4,5143.3 L -1396.5,5177.6 L -1504.0,5208.6 L -1608.4,5234.4 L -1702.5,5256.3 L -1802.0,5279.4 L -1913.1,5306.5 L -2021.1,5336.1" stroke="#00A99D" stroke-width="170" fill="none" stroke-linecap="round" stroke-linejoin="round" />
    <path d="M -494.2,4761.8 L -604.7,4805.8 L -686.5,4841.9 L -738.0,4870.0 L -811.5,4911.6 L -903.9,4964.0 L -996.4,5013.6 L -1090.0,5061.1 L -1186.5,5104.0 L -1288.4,5143.3 L -1396.5,5177.6 L -1504.0,5208.6 L -1608.4,5234.4 L -1702.5,5256.3 L -1802.0,5279.4 L -1913.1,5306.5 L -2021.1,5336.1" stroke="#FAFAF7" stroke-width="34" fill="none" stroke-linecap="round" stroke-linejoin="round" />
    <path d="M -2021.1,5336.1 L -2125.8,5370.3 L -2246.7,5428.8 L -2337.8,5487.1 L -2424.1,5550.6 L -2526.0,5574.4 L -2617.6,5518.5 L -2693.6,5435.5 L -2783.7,5340.5 L -2851.6,5274.6 L -2918.6,5234.1 L -3025.5,5197.0 L -3130.8,5188.5 L -3225.8,5196.1 L -3347.6,5241.8 L -3452.3,5290.9 L -3521.8,5327.1" stroke="#00A99D" stroke-width="170" fill="none" stroke-linecap="round" stroke-linejoin="round" />
    <path d="M -2021.1,5336.1 L -2125.8,5370.3 L -2246.7,5428.8 L -2337.8,5487.1 L -2424.1,5550.6 L -2526.0,5574.4 L -2617.6,5518.5 L -2693.6,5435.5 L -2783.7,5340.5 L -2851.6,5274.6 L -2918.6,5234.1 L -3025.5,5197.0 L -3130.8,5188.5 L -3225.8,5196.1 L -3347.6,5241.8 L -3452.3,5290.9 L -3521.8,5327.1" stroke="#FAFAF7" stroke-width="34" fill="none" stroke-linecap="round" stroke-linejoin="round" />
    <path d="M -3521.8,5327.1 L -3633.3,5382.1 L -3756.1,5440.8 L -3842.6,5478.6 L -3908.1,5503.6 L -4009.6,5533.0 L -4112.4,5552.9 L -4217.8,5565.3 L -4348.6,5576.9 L -4490.1,5586.5 L -4577.3,5590.9 L -4653.6,5594.1 L -4751.1,5597.5 L -4901.3,5595.8 L -5044.0,5591.9 L -5155.8,5584.3" stroke="#FF8000" stroke-width="170" fill="none" stroke-linecap="round" stroke-linejoin="round" />
    <path d="M -3521.8,5327.1 L -3633.3,5382.1 L -3756.1,5440.8 L -3842.6,5478.6 L -3908.1,5503.6 L -4009.6,5533.0 L -4112.4,5552.9 L -4217.8,5565.3 L -4348.6,5576.9 L -4490.1,5586.5 L -4577.3,5590.9 L -4653.6,5594.1 L -4751.1,5597.5 L -4901.3,5595.8 L -5044.0,5591.9 L -5155.8,5584.3" stroke="#FAFAF7" stroke-width="34" fill="none" stroke-linecap="round" stroke-linejoin="round" />
    <path d="M -5155.8,5584.3 L -5251.5,5576.4 L -5332.1,5568.3 L -5408.6,5556.4 L -5503.1,5528.9 L -5644.3,5460.3 L -5723.5,5410.4 L -5774.9,5362.5 L -5848.1,5282.9 L -5917.6,5199.5 L -5982.5,5112.0 L -6045.1,5022.5 L -6110.0,4941.4 L -6207.4,4854.3 L -6313.1,4782.3 L -6379.0,4746.3 L -6477.9,4730.9" stroke="#00A99D" stroke-width="170" fill="none" stroke-linecap="round" stroke-linejoin="round" />
    <path d="M -5155.8,5584.3 L -5251.5,5576.4 L -5332.1,5568.3 L -5408.6,5556.4 L -5503.1,5528.9 L -5644.3,5460.3 L -5723.5,5410.4 L -5774.9,5362.5 L -5848.1,5282.9 L -5917.6,5199.5 L -5982.5,5112.0 L -6045.1,5022.5 L -6110.0,4941.4 L -6207.4,4854.3 L -6313.1,4782.3 L -6379.0,4746.3 L -6477.9,4730.9" stroke="#FAFAF7" stroke-width="34" fill="none" stroke-linecap="round" stroke-linejoin="round" />
    <path d="M -6477.9,4730.9 L -6632.6,4715.4 L -6731.6,4714.0 L -6792.9,4727.3 L -6890.1,4759.9 L -6993.4,4800.4 L -7091.3,4839.6 L -7191.1,4878.0 L -7315.1,4923.5 L -7443.9,4970.4 L -7572.6,5017.2 L -7701.3,5064.0 L -7830.0,5110.8 L -7908.3,5136.1 L -7959.9,5147.5 L -8021.3,5154.2" stroke="#FF8000" stroke-width="170" fill="none" stroke-linecap="round" stroke-linejoin="round" />
    <path d="M -6477.9,4730.9 L -6632.6,4715.4 L -6731.6,4714.0 L -6792.9,4727.3 L -6890.1,4759.9 L -6993.4,4800.4 L -7091.3,4839.6 L -7191.1,4878.0 L -7315.1,4923.5 L -7443.9,4970.4 L -7572.6,5017.2 L -7701.3,5064.0 L -7830.0,5110.8 L -7908.3,5136.1 L -7959.9,5147.5 L -8021.3,5154.2" stroke="#FAFAF7" stroke-width="34" fill="none" stroke-linecap="round" stroke-linejoin="round" />
    <path d="M -8021.3,5154.2 L -8125.3,5157.8 L -8233.4,5152.0 L -8367.6,5112.5 L -8510.1,5065.0 L -8613.8,5022.4 L -8664.1,4986.0 L -8716.5,4946.8 L -8795.4,4873.3 L -8866.1,4792.3 L -8926.6,4706.8 L -8976.3,4615.7 L -9023.1,4497.1 L -9064.8,4343.1 L -9075.5,4274.4 L -9079.0,4210.5 L -9079.8,4097.2" stroke="#FF8000" stroke-width="170" fill="none" stroke-linecap="round" stroke-linejoin="round" />
    <path d="M -8021.3,5154.2 L -8125.3,5157.8 L -8233.4,5152.0 L -8367.6,5112.5 L -8510.1,5065.0 L -8613.8,5022.4 L -8664.1,4986.0 L -8716.5,4946.8 L -8795.4,4873.3 L -8866.1,4792.3 L -8926.6,4706.8 L -8976.3,4615.7 L -9023.1,4497.1 L -9064.8,4343.1 L -9075.5,4274.4 L -9079.0,4210.5 L -9079.8,4097.2" stroke="#FAFAF7" stroke-width="34" fill="none" stroke-linecap="round" stroke-linejoin="round" />
    <path d="M -9079.8,4097.2 L -9063.8,3961.4 L -9032.1,3821.5 L -8993.3,3695.5 L -8949.9,3595.4 L -8906.1,3517.3 L -8868.4,3454.8 L -8820.3,3394.3 L -8755.0,3321.8 L -8654.6,3230.3 L -8547.3,3146.2 L -8443.0,3091.0 L -8338.6,3035.9 L -8260.3,3000.2 L -8191.8,2978.8 L -8119.6,2963.6 L -7985.0,2954.0" stroke="#FF8000" stroke-width="170" fill="none" stroke-linecap="round" stroke-linejoin="round" />
    <path d="M -9079.8,4097.2 L -9063.8,3961.4 L -9032.1,3821.5 L -8993.3,3695.5 L -8949.9,3595.4 L -8906.1,3517.3 L -8868.4,3454.8 L -8820.3,3394.3 L -8755.0,3321.8 L -8654.6,3230.3 L -8547.3,3146.2 L -8443.0,3091.0 L -8338.6,3035.9 L -8260.3,3000.2 L -8191.8,2978.8 L -8119.6,2963.6 L -7985.0,2954.0" stroke="#FAFAF7" stroke-width="34" fill="none" stroke-linecap="round" stroke-linejoin="round" />
    <path d="M -7985.0,2954.0 L -7840.3,2945.8 L -7716.8,2949.8 L -7611.8,2965.6 L -7508.8,2990.9 L -7397.3,3024.7 L -7292.4,3060.5 L -7206.1,3094.1 L -7133.4,3125.2 L -7062.1,3159.7 L -6984.8,3200.9 L -6891.6,3252.9 L -6799.1,3307.7 L -6708.6,3364.9 L -6619.1,3425.0 L -6520.8,3499.1" stroke="#FF8000" stroke-width="170" fill="none" stroke-linecap="round" stroke-linejoin="round" />
    <path d="M -7985.0,2954.0 L -7840.3,2945.8 L -7716.8,2949.8 L -7611.8,2965.6 L -7508.8,2990.9 L -7397.3,3024.7 L -7292.4,3060.5 L -7206.1,3094.1 L -7133.4,3125.2 L -7062.1,3159.7 L -6984.8,3200.9 L -6891.6,3252.9 L -6799.1,3307.7 L -6708.6,3364.9 L -6619.1,3425.0 L -6520.8,3499.1" stroke="#FAFAF7" stroke-width="34" fill="none" stroke-linecap="round" stroke-linejoin="round" />
    <path d="M -6520.8,3499.1 L -6417.5,3578.8 L -6290.8,3685.4 L -6199.4,3764.6 L -6118.6,3835.1 L -6037.9,3905.7 L -5954.5,3978.4 L -5869.4,4052.5 L -5788.1,4122.9 L -5738.6,4165.4 L -5691.5,4205.8 L -5597.4,4284.8 L -5488.8,4375.3 L -5378.6,4463.4 L -5277.3,4542.4 L -5192.4,4606.4 L -5143.6,4637.1" stroke="#00A99D" stroke-width="170" fill="none" stroke-linecap="round" stroke-linejoin="round" />
    <path d="M -6520.8,3499.1 L -6417.5,3578.8 L -6290.8,3685.4 L -6199.4,3764.6 L -6118.6,3835.1 L -6037.9,3905.7 L -5954.5,3978.4 L -5869.4,4052.5 L -5788.1,4122.9 L -5738.6,4165.4 L -5691.5,4205.8 L -5597.4,4284.8 L -5488.8,4375.3 L -5378.6,4463.4 L -5277.3,4542.4 L -5192.4,4606.4 L -5143.6,4637.1" stroke="#FAFAF7" stroke-width="34" fill="none" stroke-linecap="round" stroke-linejoin="round" />
    <path d="M -5143.6,4637.1 L -5087.9,4671.3 L -4986.5,4727.4 L -4865.1,4787.8 L -4729.9,4849.0 L -4647.5,4880.3 L -4573.6,4899.5 L -4444.8,4914.0 L -4342.6,4911.5 L -4251.4,4863.3 L -4136.5,4782.4 L -4092.6,4730.0 L -4028.6,4643.4 L -3941.3,4528.9 L -3879.6,4443.9 L -3821.6,4365.0" stroke="#FF8000" stroke-width="170" fill="none" stroke-linecap="round" stroke-linejoin="round" />
    <path d="M -5143.6,4637.1 L -5087.9,4671.3 L -4986.5,4727.4 L -4865.1,4787.8 L -4729.9,4849.0 L -4647.5,4880.3 L -4573.6,4899.5 L -4444.8,4914.0 L -4342.6,4911.5 L -4251.4,4863.3 L -4136.5,4782.4 L -4092.6,4730.0 L -4028.6,4643.4 L -3941.3,4528.9 L -3879.6,4443.9 L -3821.6,4365.0" stroke="#FAFAF7" stroke-width="34" fill="none" stroke-linecap="round" stroke-linejoin="round" />
    <path d="M -3821.6,4365.0 L -3765.1,4289.8 L -3715.1,4224.3 L -3671.6,4167.5 L -3620.5,4099.6 L -3556.1,4014.4 L -3472.6,3912.5 L -3387.1,3815.9 L -3325.3,3758.2 L -3259.9,3709.2 L -3178.4,3663.0 L -3083.1,3618.6 L -2981.9,3585.8 L -2876.4,3563.1 L -2770.0,3550.3 L -2666.3,3543.9 L -2541.6,3540.1" stroke="#FF8000" stroke-width="170" fill="none" stroke-linecap="round" stroke-linejoin="round" />
    <path d="M -3821.6,4365.0 L -3765.1,4289.8 L -3715.1,4224.3 L -3671.6,4167.5 L -3620.5,4099.6 L -3556.1,4014.4 L -3472.6,3912.5 L -3387.1,3815.9 L -3325.3,3758.2 L -3259.9,3709.2 L -3178.4,3663.0 L -3083.1,3618.6 L -2981.9,3585.8 L -2876.4,3563.1 L -2770.0,3550.3 L -2666.3,3543.9 L -2541.6,3540.1" stroke="#FAFAF7" stroke-width="34" fill="none" stroke-linecap="round" stroke-linejoin="round" />
    <path d="M -2541.6,3540.1 L -2380.4,3536.6 L -2268.9,3534.6 L -2215.9,3533.8 L -2106.5,3528.6 L -1958.1,3520.6 L -1838.9,3512.8 L -1784.0,3505.8 L -1708.4,3491.1 L -1605.0,3467.3 L -1499.7,3432.1 L -1403.0,3394.1 L -1318.9,3356.8 L -1215.9,3295.4 L -1054.7,3176.9 L -999.5,3129.8 L -960.4,3092.4" stroke="#FF8000" stroke-width="170" fill="none" stroke-linecap="round" stroke-linejoin="round" />
    <path d="M -2541.6,3540.1 L -2380.4,3536.6 L -2268.9,3534.6 L -2215.9,3533.8 L -2106.5,3528.6 L -1958.1,3520.6 L -1838.9,3512.8 L -1784.0,3505.8 L -1708.4,3491.1 L -1605.0,3467.3 L -1499.7,3432.1 L -1403.0,3394.1 L -1318.9,3356.8 L -1215.9,3295.4 L -1054.7,3176.9 L -999.5,3129.8 L -960.4,3092.4" stroke="#FAFAF7" stroke-width="34" fill="none" stroke-linecap="round" stroke-linejoin="round" />
    <path d="M -960.4,3092.4 L -893.2,3013.9 L -824.0,2931.3 L -764.5,2842.1 L -714.2,2758.3 L -669.5,2654.1 L -622.0,2515.8 L -580.4,2360.8 L -573.0,2305.3 L -566.7,2233.3 L -560.5,2115.3 L -555.2,1990.0 L -554.2,1897.8 L -555.5,1818.6 L -556.0,1713.0 L -556.7,1602.8" stroke="#FF8000" stroke-width="170" fill="none" stroke-linecap="round" stroke-linejoin="round" />
    <path d="M -960.4,3092.4 L -893.2,3013.9 L -824.0,2931.3 L -764.5,2842.1 L -714.2,2758.3 L -669.5,2654.1 L -622.0,2515.8 L -580.4,2360.8 L -573.0,2305.3 L -566.7,2233.3 L -560.5,2115.3 L -555.2,1990.0 L -554.2,1897.8 L -555.5,1818.6 L -556.0,1713.0 L -556.7,1602.8" stroke="#FAFAF7" stroke-width="34" fill="none" stroke-linecap="round" stroke-linejoin="round" />
    <path d="M -556.7,1602.8 L -561.6,1442.3 L -566.6,1318.8 L -572.2,1240.1 L -588.4,1163.8 L -620.7,1052.0 L -667.7,942.5 L -722.4,838.6 L -788.0,703.5 L -815.9,598.7 L -816.6,533.3 L -755.7,413.8 L -698.3,358.6 L -601.1,282.4 L -531.4,234.0 L -438.6,173.1 L -314.5,93.0" stroke="#00A99D" stroke-width="170" fill="none" stroke-linecap="round" stroke-linejoin="round" />
    <path d="M -556.7,1602.8 L -561.6,1442.3 L -566.6,1318.8 L -572.2,1240.1 L -588.4,1163.8 L -620.7,1052.0 L -667.7,942.5 L -722.4,838.6 L -788.0,703.5 L -815.9,598.7 L -816.6,533.3 L -755.7,413.8 L -698.3,358.6 L -601.1,282.4 L -531.4,234.0 L -438.6,173.1 L -314.5,93.0" stroke="#FAFAF7" stroke-width="34" fill="none" stroke-linecap="round" stroke-linejoin="round" />
    <path d="M -314.5,93.0 L -253.2,55.9 L -188.0,17.3 L -100.2,-32.9 L 10.1,-95.1 L 145.0,-170.5 L 247.8,-228.1 L 323.6,-270.7 L 391.6,-308.8 L 463.6,-348.7 L 550.6,-396.9 L 667.6,-462.2 L 778.8,-528.0 L 875.4,-592.3 L 964.3,-656.4 L 1030.0,-722.8" stroke="#FF8000" stroke-width="170" fill="none" stroke-linecap="round" stroke-linejoin="round" />
    <path d="M -314.5,93.0 L -253.2,55.9 L -188.0,17.3 L -100.2,-32.9 L 10.1,-95.1 L 145.0,-170.5 L 247.8,-228.1 L 323.6,-270.7 L 391.6,-308.8 L 463.6,-348.7 L 550.6,-396.9 L 667.6,-462.2 L 778.8,-528.0 L 875.4,-592.3 L 964.3,-656.4 L 1030.0,-722.8" stroke="#FAFAF7" stroke-width="34" fill="none" stroke-linecap="round" stroke-linejoin="round" />
    <path d="M 1030.0,-722.8 L 1088.6,-801.8 L 1132.9,-907.8 L 1168.6,-1023.2 L 1182.3,-1104.8 L 1180.8,-1181.7 L 1175.1,-1260.2 L 1161.0,-1369.0 L 1144.3,-1476.3 L 1127.8,-1582.7 L 1112.3,-1687.8 L 1100.3,-1792.2 L 1097.7,-1915.1 L 1100.3,-2047.1 L 1120.2,-2181.8 L 1148.0,-2311.5 L 1185.6,-2430.3" stroke="#FF8000" stroke-width="170" fill="none" stroke-linecap="round" stroke-linejoin="round" />
    <path d="M 1030.0,-722.8 L 1088.6,-801.8 L 1132.9,-907.8 L 1168.6,-1023.2 L 1182.3,-1104.8 L 1180.8,-1181.7 L 1175.1,-1260.2 L 1161.0,-1369.0 L 1144.3,-1476.3 L 1127.8,-1582.7 L 1112.3,-1687.8 L 1100.3,-1792.2 L 1097.7,-1915.1 L 1100.3,-2047.1 L 1120.2,-2181.8 L 1148.0,-2311.5 L 1185.6,-2430.3" stroke="#FAFAF7" stroke-width="34" fill="none" stroke-linecap="round" stroke-linejoin="round" />
    <path d="M 1185.6,-2430.3 L 1232.9,-2531.8 L 1279.8,-2609.5 L 1324.4,-2675.3 L 1367.3,-2724.8 L 1428.3,-2782.3 L 1512.5,-2849.8 L 1604.8,-2906.0 L 1702.9,-2951.8 L 1803.9,-2991.7 L 1907.0,-3021.7 L 2011.5,-3046.5 L 2116.8,-3070.3 L 2222.3,-3092.3 L 2326.0,-3111.8 L 2450.3,-3132.0 L 2594.7,-3152.2" stroke="#00A99D" stroke-width="170" fill="none" stroke-linecap="round" stroke-linejoin="round" />
    <path d="M 1185.6,-2430.3 L 1232.9,-2531.8 L 1279.8,-2609.5 L 1324.4,-2675.3 L 1367.3,-2724.8 L 1428.3,-2782.3 L 1512.5,-2849.8 L 1604.8,-2906.0 L 1702.9,-2951.8 L 1803.9,-2991.7 L 1907.0,-3021.7 L 2011.5,-3046.5 L 2116.8,-3070.3 L 2222.3,-3092.3 L 2326.0,-3111.8 L 2450.3,-3132.0 L 2594.7,-3152.2" stroke="#FAFAF7" stroke-width="34" fill="none" stroke-linecap="round" stroke-linejoin="round" />
    <path d="M 2594.7,-3152.2 L 2726.7,-3170.2 L 2832.0,-3184.0 L 2923.1,-3195.5 L 3011.3,-3206.3 L 3099.2,-3216.8 L 3190.5,-3227.5 L 3304.1,-3242.3 L 3419.1,-3257.0 L 3534.0,-3272.0 L 3649.0,-3286.8 L 3763.9,-3301.8 L 3878.9,-3316.7 L 4017.5,-3340.0 L 4136.6,-3361.2 L 4234.4,-3379.6" stroke="#00A99D" stroke-width="170" fill="none" stroke-linecap="round" stroke-linejoin="round" />
    <path d="M 2594.7,-3152.2 L 2726.7,-3170.2 L 2832.0,-3184.0 L 2923.1,-3195.5 L 3011.3,-3206.3 L 3099.2,-3216.8 L 3190.5,-3227.5 L 3304.1,-3242.3 L 3419.1,-3257.0 L 3534.0,-3272.0 L 3649.0,-3286.8 L 3763.9,-3301.8 L 3878.9,-3316.7 L 4017.5,-3340.0 L 4136.6,-3361.2 L 4234.4,-3379.6" stroke="#FAFAF7" stroke-width="34" fill="none" stroke-linecap="round" stroke-linejoin="round" />
    <path d="M 4234.4,-3379.6 L 4340.4,-3401.3 L 4479.8,-3444.6 L 4561.0,-3482.4 L 4626.3,-3551.2 L 4648.6,-3667.4 L 4614.3,-3753.6 L 4553.6,-3847.8 L 4503.5,-3927.4 L 4465.3,-4030.8 L 4443.8,-4153.9 L 4432.8,-4251.9 L 4417.3,-4375.0 L 4399.4,-4515.8 L 4391.4,-4580.5 L 4381.3,-4680.9 L 4378.3,-4791.6" stroke="#FF8000" stroke-width="170" fill="none" stroke-linecap="round" stroke-linejoin="round" />
    <path d="M 4234.4,-3379.6 L 4340.4,-3401.3 L 4479.8,-3444.6 L 4561.0,-3482.4 L 4626.3,-3551.2 L 4648.6,-3667.4 L 4614.3,-3753.6 L 4553.6,-3847.8 L 4503.5,-3927.4 L 4465.3,-4030.8 L 4443.8,-4153.9 L 4432.8,-4251.9 L 4417.3,-4375.0 L 4399.4,-4515.8 L 4391.4,-4580.5 L 4381.3,-4680.9 L 4378.3,-4791.6" stroke="#FAFAF7" stroke-width="34" fill="none" stroke-linecap="round" stroke-linejoin="round" />
    <path d="M 4378.3,-4791.6 L 4396.8,-4927.0 L 4432.1,-5016.4 L 4488.4,-5079.5 L 4589.6,-5144.9 L 4703.9,-5194.0 L 4774.9,-5217.3 L 4896.6,-5253.6 L 4991.3,-5279.3 L 5065.3,-5297.5 L 5135.8,-5314.0 L 5238.9,-5335.5 L 5342.6,-5356.0 L 5491.0,-5381.9 L 5597.8,-5399.9 L 5664.5,-5410.5" stroke="#FF8000" stroke-width="170" fill="none" stroke-linecap="round" stroke-linejoin="round" />
    <path d="M 4378.3,-4791.6 L 4396.8,-4927.0 L 4432.1,-5016.4 L 4488.4,-5079.5 L 4589.6,-5144.9 L 4703.9,-5194.0 L 4774.9,-5217.3 L 4896.6,-5253.6 L 4991.3,-5279.3 L 5065.3,-5297.5 L 5135.8,-5314.0 L 5238.9,-5335.5 L 5342.6,-5356.0 L 5491.0,-5381.9 L 5597.8,-5399.9 L 5664.5,-5410.5" stroke="#FAFAF7" stroke-width="34" fill="none" stroke-linecap="round" stroke-linejoin="round" />
    <path d="M 5664.5,-5410.5 L 5765.8,-5426.9 L 5889.0,-5446.9 L 5993.0,-5464.0 L 6096.4,-5481.9 L 6201.3,-5501.3 L 6305.3,-5520.6 L 6410.1,-5539.9 L 6523.5,-5557.5 L 6680.4,-5576.8 L 6826.9,-5591.5 L 6891.3,-5595.3 L 6979.1,-5597.5 L 7133.1,-5587.8 L 7257.4,-5561.8 L 7316.6,-5535.3 L 7389.1,-5469.0" stroke="#00A99D" stroke-width="170" fill="none" stroke-linecap="round" stroke-linejoin="round" />
    <path d="M 5664.5,-5410.5 L 5765.8,-5426.9 L 5889.0,-5446.9 L 5993.0,-5464.0 L 6096.4,-5481.9 L 6201.3,-5501.3 L 6305.3,-5520.6 L 6410.1,-5539.9 L 6523.5,-5557.5 L 6680.4,-5576.8 L 6826.9,-5591.5 L 6891.3,-5595.3 L 6979.1,-5597.5 L 7133.1,-5587.8 L 7257.4,-5561.8 L 7316.6,-5535.3 L 7389.1,-5469.0" stroke="#FAFAF7" stroke-width="34" fill="none" stroke-linecap="round" stroke-linejoin="round" />
    <path d="M 7389.1,-5469.0 L 7458.8,-5361.4 L 7481.4,-5283.2 L 7503.8,-5175.5 L 7523.8,-5075.1 L 7539.8,-4992.9 L 7556.3,-4902.0 L 7580.4,-4764.9 L 7597.4,-4666.7 L 7608.3,-4599.9 L 7629.8,-4466.3 L 7644.8,-4377.2 L 7658.4,-4294.2 L 7675.0,-4190.8 L 7691.5,-4091.7 L 7714.9,-3950.1 L 7738.1,-3808.3" stroke="#00A99D" stroke-width="170" fill="none" stroke-linecap="round" stroke-linejoin="round" />
    <path d="M 7389.1,-5469.0 L 7458.8,-5361.4 L 7481.4,-5283.2 L 7503.8,-5175.5 L 7523.8,-5075.1 L 7539.8,-4992.9 L 7556.3,-4902.0 L 7580.4,-4764.9 L 7597.4,-4666.7 L 7608.3,-4599.9 L 7629.8,-4466.3 L 7644.8,-4377.2 L 7658.4,-4294.2 L 7675.0,-4190.8 L 7691.5,-4091.7 L 7714.9,-3950.1 L 7738.1,-3808.3" stroke="#FAFAF7" stroke-width="34" fill="none" stroke-linecap="round" stroke-linejoin="round" />
  <line x1="7474.8" y1="-3809.9" x2="7987.9" y2="-3893.8" stroke="#2B2620" stroke-width="50" stroke-dasharray="70,50" />
  <polygon points="7892.9,-2865.0 7693.0,-3095.7 8008.8,-3147.4" fill="#2B2620" />
  <text x="6932.9" y="-4025.1" font-family="JetBrains Mono, monospace" font-size="280" fill="#2B2620" text-anchor="middle">START / FINISH</text>
  
    <circle cx="9017.7" cy="729.0" r="220" fill="#EDE3D0" stroke="#2B2620" stroke-width="26" />
    <text x="9017.7" y="819.0" font-family="JetBrains Mono, monospace" font-size="240" font-weight="600" fill="#2B2620" text-anchor="middle">1</text>
    <circle cx="802.2" cy="4552.9" r="220" fill="#EDE3D0" stroke="#2B2620" stroke-width="26" />
    <text x="802.2" y="4642.9" font-family="JetBrains Mono, monospace" font-size="240" font-weight="600" fill="#2B2620" text-anchor="middle">2</text>
    <circle cx="-2605.8" cy="5531.3" r="220" fill="#EDE3D0" stroke="#2B2620" stroke-width="26" />
    <text x="-2605.8" y="5621.3" font-family="JetBrains Mono, monospace" font-size="240" font-weight="600" fill="#2B2620" text-anchor="middle">3</text>
    <circle cx="-5743.6" cy="5395.9" r="220" fill="#EDE3D0" stroke="#2B2620" stroke-width="26" />
    <text x="-5743.6" y="5485.9" font-family="JetBrains Mono, monospace" font-size="240" font-weight="600" fill="#2B2620" text-anchor="middle">4</text>
    <circle cx="-6721.4" cy="4711.9" r="220" fill="#EDE3D0" stroke="#2B2620" stroke-width="26" />
    <text x="-6721.4" y="4801.9" font-family="JetBrains Mono, monospace" font-size="240" font-weight="600" fill="#2B2620" text-anchor="middle">5</text>
    <circle cx="-4302.4" cy="4896.9" r="220" fill="#EDE3D0" stroke="#2B2620" stroke-width="26" />
    <text x="-4302.4" y="4986.9" font-family="JetBrains Mono, monospace" font-size="240" font-weight="600" fill="#2B2620" text-anchor="middle">6</text>
    <circle cx="-753.3" cy="410.1" r="220" fill="#EDE3D0" stroke="#2B2620" stroke-width="26" />
    <text x="-753.3" y="500.1" font-family="JetBrains Mono, monospace" font-size="240" font-weight="600" fill="#2B2620" text-anchor="middle">7</text>
    <circle cx="1175.1" cy="-1051.7" r="220" fill="#EDE3D0" stroke="#2B2620" stroke-width="26" />
    <text x="1175.1" y="-961.7" font-family="JetBrains Mono, monospace" font-size="240" font-weight="600" fill="#2B2620" text-anchor="middle">8</text>
    <circle cx="1234.3" cy="-2534.5" r="220" fill="#EDE3D0" stroke="#2B2620" stroke-width="26" />
    <text x="1234.3" y="-2444.5" font-family="JetBrains Mono, monospace" font-size="240" font-weight="600" fill="#2B2620" text-anchor="middle">9</text>
    <circle cx="4638.6" cy="-3701.2" r="220" fill="#EDE3D0" stroke="#2B2620" stroke-width="26" />
    <text x="4638.6" y="-3611.2" font-family="JetBrains Mono, monospace" font-size="240" font-weight="600" fill="#2B2620" text-anchor="middle">10</text>
    <circle cx="4508.6" cy="-5098.6" r="220" fill="#EDE3D0" stroke="#2B2620" stroke-width="26" />
    <text x="4508.6" y="-5008.6" font-family="JetBrains Mono, monospace" font-size="240" font-weight="600" fill="#2B2620" text-anchor="middle">11</text>
    <circle cx="7491.9" cy="-5234.2" r="220" fill="#EDE3D0" stroke="#2B2620" stroke-width="26" />
    <text x="7491.9" y="-5144.2" font-family="JetBrains Mono, monospace" font-size="240" font-weight="600" fill="#2B2620" text-anchor="middle">12</text>
</svg>