<svg viewBox="-8134.767698997955 -5677.3917228330865 16525.542595748855 10567.85420376748" xmlns="http://www.w3.org/2000/svg" style="width:100%;height:auto;display:block;">
  <path d="M 6419.7,-2939.8 L 6437.8,-2876.0 L 6457.7,-2805.4 L 6483.8,-2712.6 L 6511.4,-2615.8 L 6539.6,-2518.8 L 6567.8,-2422.1 L 6595.5,-2326.8 L 6621.8,-2237.4 L 6655.6,-2123.7 L 6699.0,-1978.0 L 6738.1,-1846.8 L 6761.9,-1767.6 L 6773.9,-1728.3 L 6792.6,-1668.1 L 6829.2,-1550.1" stroke="#00A99D" stroke-width="170" fill="none" stroke-linecap="round" stroke-linejoin="round" />
    <path d="M 6419.7,-2939.8 L 6437.8,-2876.0 L 6457.7,-2805.4 L 6483.8,-2712.6 L 6511.4,-2615.8 L 6539.6,-2518.8 L 6567.8,-2422.1 L 6595.5,-2326.8 L 6621.8,-2237.4 L 6655.6,-2123.7 L 6699.0,-1978.0 L 6738.1,-1846.8 L 6761.9,-1767.6 L 6773.9,-1728.3 L 6792.6,-1668.1 L 6829.2,-1550.1" stroke="#FAFAF7" stroke-width="34" fill="none" stroke-linecap="round" stroke-linejoin="round" />
    <path d="M 6829.2,-1550.1 L 6868.3,-1424.3 L 6895.6,-1336.6 L 6913.8,-1278.5 L 6934.3,-1213.5 L 6962.6,-1124.6 L 6999.8,-1009.2 L 7038.4,-889.3 L 7080.3,-759.9 L 7117.7,-644.7 L 7152.7,-537.7 L 7169.9,-485.7 L 7185.3,-439.9 L 7205.6,-380.2 L 7236.6,-288.9 L 7271.3,-186.3 L 7305.6,-83.6" stroke="#00A99D" stroke-width="170" fill="none" stroke-linecap="round" stroke-linejoin="round" />
    <path d="M 6829.2,-1550.1 L 6868.3,-1424.3 L 6895.6,-1336.6 L 6913.8,-1278.5 L 6934.3,-1213.5 L 6962.6,-1124.6 L 6999.8,-1009.2 L 7038.4,-889.3 L 7080.3,-759.9 L 7117.7,-644.7 L 7152.7,-537.7 L 7169.9,-485.7 L 7185.3,-439.9 L 7205.6,-380.2 L 7236.6,-288.9 L 7271.3,-186.3 L 7305.6,-83.6" stroke="#FAFAF7" stroke-width="34" fill="none" stroke-linecap="round" stroke-linejoin="round" />
    <path d="M 7305.6,-83.6 L 7339.8,19.9 L 7372.6,119.5 L 7401.2,211.3 L 7431.7,322.4 L 7467.6,468.3 L 7478.2,521.7 L 7486.9,601.4 L 7490.8,679.8 L 7471.2,783.9 L 7442.2,886.2 L 7403.9,943.8 L 7337.7,1010.6 L 7222.5,1101.3 L 7170.5,1138.7 L 7098.0,1196.0" stroke="#2B3A4A" stroke-width="170" fill="none" stroke-linecap="round" stroke-linejoin="round" />
    <path d="M 7305.6,-83.6 L 7339.8,19.9 L 7372.6,119.5 L 7401.2,211.3 L 7431.7,322.4 L 7467.6,468.3 L 7478.2,521.7 L 7486.9,601.4 L 7490.8,679.8 L 7471.2,783.9 L 7442.2,886.2 L 7403.9,943.8 L 7337.7,1010.6 L 7222.5,1101.3 L 7170.5,1138.7 L 7098.0,1196.0" stroke="#FAFAF7" stroke-width="34" fill="none" stroke-linecap="round" stroke-linejoin="round" />
    <path d="M 7098.0,1196.0 L 7027.9,1263.6 L 6974.5,1335.7 L 6914.6,1449.0 L 6873.8,1536.0 L 6835.7,1620.9 L 6791.2,1710.3 L 6719.3,1809.8 L 6641.7,1865.3 L 6539.4,1889.1 L 6473.6,1886.6 L 6385.0,1853.5 L 6305.2,1796.9 L 6228.8,1717.3 L 6176.1,1652.1 L 6120.9,1570.9 L 6070.0,1485.6" stroke="#2B3A4A" stroke-width="170" fill="none" stroke-linecap="round" stroke-linejoin="round" />
    <path d="M 7098.0,1196.0 L 7027.9,1263.6 L 6974.5,1335.7 L 6914.6,1449.0 L 6873.8,1536.0 L 6835.7,1620.9 L 6791.2,1710.3 L 6719.3,1809.8 L 6641.7,1865.3 L 6539.4,1889.1 L 6473.6,1886.6 L 6385.0,1853.5 L 6305.2,1796.9 L 6228.8,1717.3 L 6176.1,1652.1 L 6120.9,1570.9 L 6070.0,1485.6" stroke="#FAFAF7" stroke-width="34" fill="none" stroke-linecap="round" stroke-linejoin="round" />
    <path d="M 6070.0,1485.6 L 6029.7,1404.8 L 5992.1,1319.9 L 5958.6,1230.3 L 5930.6,1133.1 L 5905.1,1029.7 L 5888.4,933.7 L 5876.4,832.4 L 5867.4,732.3 L 5859.5,604.7 L 5853.1,473.6 L 5849.9,399.2 L 5847.2,328.8 L 5844.2,247.3 L 5840.6,150.3 L 5836.5,52.5" stroke="#00A99D" stroke-width="170" fill="none" stroke-linecap="round" stroke-linejoin="round" />
    <path d="M 6070.0,1485.6 L 6029.7,1404.8 L 5992.1,1319.9 L 5958.6,1230.3 L 5930.6,1133.1 L 5905.1,1029.7 L 5888.4,933.7 L 5876.4,832.4 L 5867.4,732.3 L 5859.5,604.7 L 5853.1,473.6 L 5849.9,399.2 L 5847.2,328.8 L 5844.2,247.3 L 5840.6,150.3 L 5836.5,52.5" stroke="#FAFAF7" stroke-width="34" fill="none" stroke-linecap="round" stroke-linejoin="round" />
    <path d="M 5836.5,52.5 L 5832.7,-32.6 L 5826.0,-133.5 L 5814.3,-270.3 L 5801.0,-407.4 L 5792.0,-472.8 L 5782.5,-539.5 L 5766.2,-626.8 L 5746.0,-723.7 L 5721.7,-818.3 L 5696.2,-913.2 L 5661.5,-1011.5 L 5624.7,-1110.1 L 5584.3,-1203.2 L 5541.8,-1289.7 L 5457.0,-1412.9 L 5391.3,-1493.9" stroke="#2B3A4A" stroke-width="170" fill="none" stroke-linecap="round" stroke-linejoin="round" />
    <path d="M 5836.5,52.5 L 5832.7,-32.6 L 5826.0,-133.5 L 5814.3,-270.3 L 5801.0,-407.4 L 5792.0,-472.8 L 5782.5,-539.5 L 5766.2,-626.8 L 5746.0,-723.7 L 5721.7,-818.3 L 5696.2,-913.2 L 5661.5,-1011.5 L 5624.7,-1110.1 L 5584.3,-1203.2 L 5541.8,-1289.7 L 5457.0,-1412.9 L 5391.3,-1493.9" stroke="#FAFAF7" stroke-width="34" fill="none" stroke-linecap="round" stroke-linejoin="round" />
    <path d="M 5391.3,-1493.9 L 5358.8,-1513.9 L 5268.5,-1566.1 L 5129.2,-1600.1 L 5062.7,-1606.6 L 4983.7,-1601.0 L 4883.0,-1587.4 L 4787.2,-1566.6 L 4687.7,-1538.8 L 4579.8,-1502.6 L 4465.6,-1456.8 L 4390.5,-1425.7 L 4356.2,-1410.2 L 4300.1,-1382.6 L 4208.8,-1335.4 L 4091.6,-1269.4 L 3986.8,-1208.2" stroke="#00A99D" stroke-width="170" fill="none" stroke-linecap="round" stroke-linejoin="round" />
    <path d="M 5391.3,-1493.9 L 5358.8,-1513.9 L 5268.5,-1566.1 L 5129.2,-1600.1 L 5062.7,-1606.6 L 4983.7,-1601.0 L 4883.0,-1587.4 L 4787.2,-1566.6 L 4687.7,-1538.8 L 4579.8,-1502.6 L 4465.6,-1456.8 L 4390.5,-1425.7 L 4356.2,-1410.2 L 4300.1,-1382.6 L 4208.8,-1335.4 L 4091.6,-1269.4 L 3986.8,-1208.2" stroke="#FAFAF7" stroke-width="34" fill="none" stroke-linecap="round" stroke-linejoin="round" />
    <path d="M 3986.8,-1208.2 L 3917.4,-1167.6 L 3858.6,-1133.0 L 3778.3,-1086.0 L 3697.1,-1038.9 L 3601.4,-984.1 L 3471.6,-909.5 L 3356.9,-843.8 L 3259.0,-787.8 L 3178.9,-742.0 L 3117.4,-707.0 L 3060.7,-674.8 L 3004.0,-642.6 L 2922.7,-597.1 L 2803.6,-531.2 L 2702.1,-474.8" stroke="#00A99D" stroke-width="170" fill="none" stroke-linecap="round" stroke-linejoin="round" />
    <path d="M 3986.8,-1208.2 L 3917.4,-1167.6 L 3858.6,-1133.0 L 3778.3,-1086.0 L 3697.1,-1038.9 L 3601.4,-984.1 L 3471.6,-909.5 L 3356.9,-843.8 L 3259.0,-787.8 L 3178.9,-742.0 L 3117.4,-707.0 L 3060.7,-674.8 L 3004.0,-642.6 L 2922.7,-597.1 L 2803.6,-531.2 L 2702.1,-474.8" stroke="#FAFAF7" stroke-width="34" fill="none" stroke-linecap="round" stroke-linejoin="round" />
    <path d="M 2702.1,-474.8 L 2652.3,-446.3 L 2589.8,-410.4 L 2484.7,-350.5 L 2348.6,-273.2 L 2238.2,-210.7 L 2157.6,-165.2 L 2097.0,-130.9 L 2036.4,-96.7 L 1975.8,-62.3 L 1911.8,-25.7 L 1829.6,21.8 L 1747.3,69.4 L 1673.9,111.8 L 1580.7,168.5 L 1442.9,257.7 L 1311.4,342.8" stroke="#00A99D" stroke-width="170" fill="none" stroke-linecap="round" stroke-linejoin="round" />
    <path d="M 2702.1,-474.8 L 2652.3,-446.3 L 2589.8,-410.4 L 2484.7,-350.5 L 2348.6,-273.2 L 2238.2,-210.7 L 2157.6,-165.2 L 2097.0,-130.9 L 2036.4,-96.7 L 1975.8,-62.3 L 1911.8,-25.7 L 1829.6,21.8 L 1747.3,69.4 L 1673.9,111.8 L 1580.7,168.5 L 1442.9,257.7 L 1311.4,342.8" stroke="#FAFAF7" stroke-width="34" fill="none" stroke-linecap="round" stroke-linejoin="round" />
    <path d="M 1311.4,342.8 L 1260.8,377.6 L 1217.2,408.1 L 1167.5,448.9 L 1102.3,508.9 L 1002.6,603.0 L 909.7,695.1 L 834.9,779.7 L 765.9,862.2 L 707.3,940.8 L 649.0,1021.7 L 590.9,1104.1 L 540.5,1177.7 L 490.8,1250.5 L 454.4,1304.0 L 420.7,1353.9" stroke="#00A99D" stroke-width="170" fill="none" stroke-linecap="round" stroke-linejoin="round" />
    <path d="M 1311.4,342.8 L 1260.8,377.6 L 1217.2,408.1 L 1167.5,448.9 L 1102.3,508.9 L 1002.6,603.0 L 909.7,695.1 L 834.9,779.7 L 765.9,862.2 L 707.3,940.8 L 649.0,1021.7 L 590.9,1104.1 L 540.5,1177.7 L 490.8,1250.5 L 454.4,1304.0 L 420.7,1353.9" stroke="#FAFAF7" stroke-width="34" fill="none" stroke-linecap="round" stroke-linejoin="round" />
    <path d="M 420.7,1353.9 L 373.7,1423.7 L 318.9,1505.2 L 259.7,1594.2 L 199.5,1685.1 L 142.2,1771.6 L 89.0,1852.2 L 28.9,1944.2 L -48.7,2065.5 L -106.7,2157.1 L -144.2,2216.4 L -176.8,2269.3 L -227.5,2351.5 L -291.8,2456.0 L -357.4,2562.6 L -396.6,2626.9 L -436.6,2693.0" stroke="#2B3A4A" stroke-width="170" fill="none" stroke-linecap="round" stroke-linejoin="round" />
    <path d="M 420.7,1353.9 L 373.7,1423.7 L 318.9,1505.2 L 259.7,1594.2 L 199.5,1685.1 L 142.2,1771.6 L 89.0,1852.2 L 28.9,1944.2 L -48.7,2065.5 L -106.7,2157.1 L -144.2,2216.4 L -176.8,2269.3 L -227.5,2351.5 L -291.8,2456.0 L -357.4,2562.6 L -396.6,2626.9 L -436.6,2693.0" stroke="#FAFAF7" stroke-width="34" fill="none" stroke-linecap="round" stroke-linejoin="round" />
    <path d="M -436.6,2693.0 L -500.0,2797.1 L -563.5,2901.3 L -630.8,2987.2 L -698.6,3066.1 L -750.2,3117.5 L -814.2,3173.1 L -893.1,3230.4 L -976.2,3272.6 L -1068.1,3293.8 L -1168.3,3292.6 L -1269.0,3268.5 L -1398.4,3217.0 L -1490.5,3170.9 L -1574.8,3123.6 L -1660.3,3073.3 L -1746.2,3019.9" stroke="#2B3A4A" stroke-width="170" fill="none" stroke-linecap="round" stroke-linejoin="round" />
    <path d="M -436.6,2693.0 L -500.0,2797.1 L -563.5,2901.3 L -630.8,2987.2 L -698.6,3066.1 L -750.2,3117.5 L -814.2,3173.1 L -893.1,3230.4 L -976.2,3272.6 L -1068.1,3293.8 L -1168.3,3292.6 L -1269.0,3268.5 L -1398.4,3217.0 L -1490.5,3170.9 L -1574.8,3123.6 L -1660.3,3073.3 L -1746.2,3019.9" stroke="#FAFAF7" stroke-width="34" fill="none" stroke-linecap="round" stroke-linejoin="round" />
    <path d="M -1746.2,3019.9 L -1830.3,2964.5 L -1890.8,2918.9 L -1944.7,2876.2 L -2008.9,2823.0 L -2083.1,2760.3 L -2156.2,2696.1 L -2243.7,2618.3 L -2317.8,2551.5 L -2375.6,2499.9 L -2452.4,2438.9 L -2543.7,2383.0 L -2638.4,2330.5 L -2724.5,2312.5 L -2806.8,2336.0 L -2877.7,2406.3" stroke="#00A99D" stroke-width="170" fill="none" stroke-linecap="round" stroke-linejoin="round" />
    <path d="M -1746.2,3019.9 L -1830.3,2964.5 L -1890.8,2918.9 L -1944.7,2876.2 L -2008.9,2823.0 L -2083.1,2760.3 L -2156.2,2696.1 L -2243.7,2618.3 L -2317.8,2551.5 L -2375.6,2499.9 L -2452.4,2438.9 L -2543.7,2383.0 L -2638.4,2330.5 L -2724.5,2312.5 L -2806.8,2336.0 L -2877.7,2406.3" stroke="#FAFAF7" stroke-width="34" fill="none" stroke-linecap="round" stroke-linejoin="round" />
    <path d="M -2877.7,2406.3 L -2936.9,2523.1 L -2962.4,2597.9 L -2994.1,2697.1 L -3020.7,2815.1 L -3032.3,2872.0 L -3065.3,3020.3 L -3081.7,3086.3 L -3096.6,3143.4 L -3129.8,3259.8 L -3153.9,3340.2 L -3142.5,3304.1 L -3167.8,3377.9 L -3204.1,3477.6 L -3260.6,3603.1 L -3306.7,3693.3 L -3339.2,3737.0" stroke="#00A99D" stroke-width="170" fill="none" stroke-linecap="round" stroke-linejoin="round" />
    <path d="M -2877.7,2406.3 L -2936.9,2523.1 L -2962.4,2597.9 L -2994.1,2697.1 L -3020.7,2815.1 L -3032.3,2872.0 L -3065.3,3020.3 L -3081.7,3086.3 L -3096.6,3143.4 L -3129.8,3259.8 L -3153.9,3340.2 L -3142.5,3304.1 L -3167.8,3377.9 L -3204.1,3477.6 L -3260.6,3603.1 L -3306.7,3693.3 L -3339.2,3737.0" stroke="#FAFAF7" stroke-width="34" fill="none" stroke-linecap="round" stroke-linejoin="round" />
    <path d="M -3339.2,3737.0 L -3399.0,3806.8 L -3472.5,3877.6 L -3550.6,3933.3 L -3637.6,3970.6 L -3748.6,3990.5 L -3862.8,3987.7 L -3933.5,3971.5 L -4019.6,3945.1 L -4112.4,3899.9 L -4247.7,3822.7 L -4308.7,3784.2 L -4362.7,3746.1 L -4474.4,3665.1 L -4554.4,3602.4 L -4634.4,3539.8" stroke="#00A99D" stroke-width="170" fill="none" stroke-linecap="round" stroke-linejoin="round" />
    <path d="M -3339.2,3737.0 L -3399.0,3806.8 L -3472.5,3877.6 L -3550.6,3933.3 L -3637.6,3970.6 L -3748.6,3990.5 L -3862.8,3987.7 L -3933.5,3971.5 L -4019.6,3945.1 L -4112.4,3899.9 L -4247.7,3822.7 L -4308.7,3784.2 L -4362.7,3746.1 L -4474.4,3665.1 L -4554.4,3602.4 L -4634.4,3539.8" stroke="#FAFAF7" stroke-width="34" fill="none" stroke-linecap="round" stroke-linejoin="round" />
    <path d="M -4634.4,3539.8 L -4688.5,3494.7 L -4745.0,3447.1 L -4823.3,3383.3 L -4945.0,3287.5 L -5052.5,3203.9 L -5136.2,3141.0 L -5196.2,3098.6 L -5256.1,3056.0 L -5316.0,3013.6 L -5375.9,2971.1 L -5435.9,2928.6 L -5495.8,2886.2 L -5575.6,2830.3 L -5656.8,2773.6 L -5736.6,2717.8 L -5812.7,2664.0" stroke="#00A99D" stroke-width="170" fill="none" stroke-linecap="round" stroke-linejoin="round" />
    <path d="M -4634.4,3539.8 L -4688.5,3494.7 L -4745.0,3447.1 L -4823.3,3383.3 L -4945.0,3287.5 L -5052.5,3203.9 L -5136.2,3141.0 L -5196.2,3098.6 L -5256.1,3056.0 L -5316.0,3013.6 L -5375.9,2971.1 L -5435.9,2928.6 L -5495.8,2886.2 L -5575.6,2830.3 L -5656.8,2773.6 L -5736.6,2717.8 L -5812.7,2664.0" stroke="#FAFAF7" stroke-width="34" fill="none" stroke-linecap="round" stroke-linejoin="round" />
    <path d="M -5812.7,2664.0 L -5891.1,2608.7 L -5975.4,2550.4 L -6054.0,2495.5 L -6130.9,2441.3 L -6233.4,2369.5 L -6362.4,2279.2 L -6417.1,2242.1 L -6463.9,2211.0 L -6536.7,2165.8 L -6628.4,2109.7 L -6713.5,2056.4 L -6746.7,2036.3 L -6776.7,2016.4 L -6897.5,1934.6 L -6968.7,1886.7 L -7018.2,1848.8" stroke="#2B3A4A" stroke-width="170" fill="none" stroke-linecap="round" stroke-linejoin="round" />
    <path d="M -5812.7,2664.0 L -5891.1,2608.7 L -5975.4,2550.4 L -6054.0,2495.5 L -6130.9,2441.3 L -6233.4,2369.5 L -6362.4,2279.2 L -6417.1,2242.1 L -6463.9,2211.0 L -6536.7,2165.8 L -6628.4,2109.7 L -6713.5,2056.4 L -6746.7,2036.3 L -6776.7,2016.4 L -6897.5,1934.6 L -6968.7,1886.7 L -7018.2,1848.8" stroke="#FAFAF7" stroke-width="34" fill="none" stroke-linecap="round" stroke-linejoin="round" />
    <path d="M -7018.2,1848.8 L -7088.2,1783.6 L -7155.0,1680.8 L -7202.0,1577.6 L -7214.5,1523.1 L -7230.2,1426.5 L -7234.8,1292.7 L -7220.4,1176.2 L -7208.6,1114.1 L -7187.7,1054.5 L -7114.5,932.5 L -7015.5,793.9 L -6974.4,752.8 L -6900.5,683.5 L -6810.3,591.5 L -6763.9,531.2" stroke="#00A99D" stroke-width="170" fill="none" stroke-linecap="round" stroke-linejoin="round" />
    <path d="M -7018.2,1848.8 L -7088.2,1783.6 L -7155.0,1680.8 L -7202.0,1577.6 L -7214.5,1523.1 L -7230.2,1426.5 L -7234.8,1292.7 L -7220.4,1176.2 L -7208.6,1114.1 L -7187.7,1054.5 L -7114.5,932.5 L -7015.5,793.9 L -6974.4,752.8 L -6900.5,683.5 L -6810.3,591.5 L -6763.9,531.2" stroke="#FAFAF7" stroke-width="34" fill="none" stroke-linecap="round" stroke-linejoin="round" />
    <path d="M -6763.9,531.2 L -6738.4,452.0 L -6732.5,337.8 L -6751.5,207.3 L -6764.5,154.1 L -6787.5,64.0 L -6823.3,-62.4 L -6855.2,-172.8 L -6865.5,-223.9 L -6875.4,-307.1 L -6864.9,-399.9 L -6840.6,-492.2 L -6801.7,-583.9 L -6738.5,-714.7 L -6683.4,-825.9 L -6665.9,-860.9 L -6623.4,-952.1" stroke="#00A99D" stroke-width="170" fill="none" stroke-linecap="round" stroke-linejoin="round" />
    <path d="M -6763.9,531.2 L -6738.4,452.0 L -6732.5,337.8 L -6751.5,207.3 L -6764.5,154.1 L -6787.5,64.0 L -6823.3,-62.4 L -6855.2,-172.8 L -6865.5,-223.9 L -6875.4,-307.1 L -6864.9,-399.9 L -6840.6,-492.2 L -6801.7,-583.9 L -6738.5,-714.7 L -6683.4,-825.9 L -6665.9,-860.9 L -6623.4,-952.1" stroke="#FAFAF7" stroke-width="34" fill="none" stroke-linecap="round" stroke-linejoin="round" />
    <path d="M -6623.4,-952.1 L -6562.3,-1085.3 L -6512.0,-1197.3 L -6492.6,-1247.2 L -6473.4,-1305.0 L -6444.0,-1404.1 L -6412.0,-1558.2 L -6403.3,-1619.1 L -6391.8,-1713.3 L -6375.4,-1822.7 L -6353.8,-1902.9 L -6309.0,-1988.0 L -6236.0,-2054.5 L -6135.1,-2059.2 L -6053.9,-2016.1 L -5980.1,-1949.0" stroke="#00A99D" stroke-width="170" fill="none" stroke-linecap="round" stroke-linejoin="round" />
    <path d="M -6623.4,-952.1 L -6562.3,-1085.3 L -6512.0,-1197.3 L -6492.6,-1247.2 L -6473.4,-1305.0 L -6444.0,-1404.1 L -6412.0,-1558.2 L -6403.3,-1619.1 L -6391.8,-1713.3 L -6375.4,-1822.7 L -6353.8,-1902.9 L -6309.0,-1988.0 L -6236.0,-2054.5 L -6135.1,-2059.2 L -6053.9,-2016.1 L -5980.1,-1949.0" stroke="#FAFAF7" stroke-width="34" fill="none" stroke-linecap="round" stroke-linejoin="round" />
    <path d="M -5980.1,-1949.0 L -5919.5,-1876.8 L -5879.0,-1822.8 L -5821.0,-1742.3 L -5770.0,-1668.0 L -5715.4,-1585.9 L -5656.5,-1491.9 L -5588.9,-1384.7 L -5548.0,-1320.3 L -5510.5,-1262.4 L -5459.8,-1185.9 L -5386.3,-1078.0 L -5333.4,-1003.1 L -5289.1,-941.5 L -5232.3,-863.4 L -5175.3,-784.8 L -5109.0,-693.6" stroke="#2B3A4A" stroke-width="170" fill="none" stroke-linecap="round" stroke-linejoin="round" />
    <path d="M -5980.1,-1949.0 L -5919.5,-1876.8 L -5879.0,-1822.8 L -5821.0,-1742.3 L -5770.0,-1668.0 L -5715.4,-1585.9 L -5656.5,-1491.9 L -5588.9,-1384.7 L -5548.0,-1320.3 L -5510.5,-1262.4 L -5459.8,-1185.9 L -5386.3,-1078.0 L -5333.4,-1003.1 L -5289.1,-941.5 L -5232.3,-863.4 L -5175.3,-784.8 L -5109.0,-693.6" stroke="#FAFAF7" stroke-width="34" fill="none" stroke-linecap="round" stroke-linejoin="round" />
    <path d="M -5109.0,-693.6 L -5028.6,-581.6 L -4950.5,-472.4 L -4905.4,-408.6 L -4877.2,-367.7 L -4837.3,-310.2 L -4783.4,-232.9 L -4725.2,-149.7 L -4668.6,-69.1 L -4611.4,10.0 L -4553.5,89.0 L -4495.6,168.1 L -4440.2,244.8 L -4385.4,320.3 L -4327.3,398.4 L -4267.0,479.3 L -4205.4,561.7" stroke="#00A99D" stroke-width="170" fill="none" stroke-linecap="round" stroke-linejoin="round" />
    <path d="M -5109.0,-693.6 L -5028.6,-581.6 L -4950.5,-472.4 L -4905.4,-408.6 L -4877.2,-367.7 L -4837.3,-310.2 L -4783.4,-232.9 L -4725.2,-149.7 L -4668.6,-69.1 L -4611.4,10.0 L -4553.5,89.0 L -4495.6,168.1 L -4440.2,244.8 L -4385.4,320.3 L -4327.3,398.4 L -4267.0,479.3 L -4205.4,561.7" stroke="#FAFAF7" stroke-width="34" fill="none" stroke-linecap="round" stroke-linejoin="round" />
    <path d="M -4205.4,561.7 L -4148.3,636.4 L -4094.8,706.1 L -4053.4,758.4 L -3979.2,846.5 L -3895.7,944.7 L -3827.6,1022.4 L -3760.9,1093.9 L -3692.7,1166.6 L -3621.5,1241.5 L -3549.7,1316.6 L -3478.9,1388.0 L -3409.3,1457.5 L -3340.1,1525.8 L -3267.5,1596.3 L -3193.9,1667.2" stroke="#00A99D" stroke-width="170" fill="none" stroke-linecap="round" stroke-linejoin="round" />
    <path d="M -4205.4,561.7 L -4148.3,636.4 L -4094.8,706.1 L -4053.4,758.4 L -3979.2,846.5 L -3895.7,944.7 L -3827.6,1022.4 L -3760.9,1093.9 L -3692.7,1166.6 L -3621.5,1241.5 L -3549.7,1316.6 L -3478.9,1388.0 L -3409.3,1457.5 L -3340.1,1525.8 L -3267.5,1596.3 L -3193.9,1667.2" stroke="#FAFAF7" stroke-width="34" fill="none" stroke-linecap="round" stroke-linejoin="round" />
    <path d="M -3193.9,1667.2 L -3126.0,1729.7 L -3047.5,1794.1 L -2961.6,1853.1 L -2869.9,1885.3 L -2772.9,1882.1 L -2684.0,1836.7 L -2612.7,1770.8 L -2551.5,1683.5 L -2505.5,1600.2 L -2461.1,1512.7 L -2424.6,1435.3 L -2384.0,1347.3 L -2343.8,1257.6 L -2304.9,1165.8 L -2263.3,1061.7 L -2222.1,957.2" stroke="#00A99D" stroke-width="170" fill="none" stroke-linecap="round" stroke-linejoin="round" />
    <path d="M -3193.9,1667.2 L -3126.0,1729.7 L -3047.5,1794.1 L -2961.6,1853.1 L -2869.9,1885.3 L -2772.9,1882.1 L -2684.0,1836.7 L -2612.7,1770.8 L -2551.5,1683.5 L -2505.5,1600.2 L -2461.1,1512.7 L -2424.6,1435.3 L -2384.0,1347.3 L -2343.8,1257.6 L -2304.9,1165.8 L -2263.3,1061.7 L -2222.1,957.2" stroke="#FAFAF7" stroke-width="34" fill="none" stroke-linecap="round" stroke-linejoin="round" />
    <path d="M -2222.1,957.2 L -2193.0,885.3 L -2163.0,813.4 L -2127.2,733.7 L -2083.2,638.2 L -2033.7,532.9 L -1996.6,453.8 L -1972.1,401.1 L -1943.0,340.0 L -1899.1,250.1 L -1853.2,161.1 L -1805.9,73.7 L -1748.6,-18.2 L -1691.6,-107.8 L -1638.5,-179.5 L -1584.1,-241.5" stroke="#2B3A4A" stroke-width="170" fill="none" stroke-linecap="round" stroke-linejoin="round" />
    <path d="M -2222.1,957.2 L -2193.0,885.3 L -2163.0,813.4 L -2127.2,733.7 L -2083.2,638.2 L -2033.7,532.9 L -1996.6,453.8 L -1972.1,401.1 L -1943.0,340.0 L -1899.1,250.1 L -1853.2,161.1 L -1805.9,73.7 L -1748.6,-18.2 L -1691.6,-107.8 L -1638.5,-179.5 L -1584.1,-241.5" stroke="#FAFAF7" stroke-width="34" fill="none" stroke-linecap="round" stroke-linejoin="round" />
    <path d="M -1584.1,-241.5 L -1528.0,-304.1 L -1458.0,-372.0 L -1383.6,-435.5 L -1302.2,-497.0 L -1194.6,-567.2 L -1100.2,-625.1 L -1033.9,-661.7 L -967.2,-698.2 L -880.9,-744.9 L -787.7,-795.4 L -655.2,-868.1 L -563.4,-918.7 L -491.4,-958.4 L -429.5,-992.5 L -361.0,-1030.1 L -277.4,-1075.9" stroke="#2B3A4A" stroke-width="170" fill="none" stroke-linecap="round" stroke-linejoin="round" />
    <path d="M -1584.1,-241.5 L -1528.0,-304.1 L -1458.0,-372.0 L -1383.6,-435.5 L -1302.2,-497.0 L -1194.6,-567.2 L -1100.2,-625.1 L -1033.9,-661.7 L -967.2,-698.2 L -880.9,-744.9 L -787.7,-795.4 L -655.2,-868.1 L -563.4,-918.7 L -491.4,-958.4 L -429.5,-992.5 L -361.0,-1030.1 L -277.4,-1075.9" stroke="#FAFAF7" stroke-width="34" fill="none" stroke-linecap="round" stroke-linejoin="round" />
    <path d="M -277.4,-1075.9 L -175.0,-1131.8 L -64.7,-1192.1 L 21.2,-1239.3 L 90.1,-1277.5 L 159.1,-1315.7 L 243.5,-1362.0 L 342.2,-1415.9 L 427.6,-1462.7 L 499.8,-1502.4 L 586.9,-1549.5 L 699.1,-1608.8 L 814.5,-1669.9 L 897.7,-1713.8 L 959.5,-1746.4 L 1022.0,-1779.3 L 1105.2,-1821.9" stroke="#2B3A4A" stroke-width="170" fill="none" stroke-linecap="round" stroke-linejoin="round" />
    <path d="M -277.4,-1075.9 L -175.0,-1131.8 L -64.7,-1192.1 L 21.2,-1239.3 L 90.1,-1277.5 L 159.1,-1315.7 L 243.5,-1362.0 L 342.2,-1415.9 L 427.6,-1462.7 L 499.8,-1502.4 L 586.9,-1549.5 L 699.1,-1608.8 L 814.5,-1669.9 L 897.7,-1713.8 L 959.5,-1746.4 L 1022.0,-1779.3 L 1105.2,-1821.9" stroke="#FAFAF7" stroke-width="34" fill="none" stroke-linecap="round" stroke-linejoin="round" />
    <path d="M 1105.2,-1821.9 L 1206.4,-1872.6 L 1321.0,-1928.6 L 1433.2,-1982.9 L 1524.6,-2027.2 L 1579.8,-2054.8 L 1635.7,-2083.1 L 1765.5,-2148.2 L 1895.9,-2214.2 L 1999.3,-2267.3 L 2074.4,-2307.3 L 2134.6,-2340.3 L 2191.0,-2371.5 L 2245.6,-2401.9 L 2323.3,-2447.4 L 2423.9,-2511.8" stroke="#00A99D" stroke-width="170" fill="none" stroke-linecap="round" stroke-linejoin="round" />
    <path d="M 1105.2,-1821.9 L 1206.4,-1872.6 L 1321.0,-1928.6 L 1433.2,-1982.9 L 1524.6,-2027.2 L 1579.8,-2054.8 L 1635.7,-2083.1 L 1765.5,-2148.2 L 1895.9,-2214.2 L 1999.3,-2267.3 L 2074.4,-2307.3 L 2134.6,-2340.3 L 2191.0,-2371.5 L 2245.6,-2401.9 L 2323.3,-2447.4 L 2423.9,-2511.8" stroke="#FAFAF7" stroke-width="34" fill="none" stroke-linecap="round" stroke-linejoin="round" />
    <path d="M 2423.9,-2511.8 L 2491.8,-2562.5 L 2547.8,-2624.9 L 2580.3,-2708.2 L 2586.9,-2803.0 L 2557.4,-2959.6 L 2547.9,-3028.6 L 2545.8,-3107.0 L 2552.4,-3226.4 L 2564.6,-3304.7 L 2589.4,-3386.9 L 2629.1,-3472.5 L 2680.9,-3552.3 L 2745.6,-3623.9 L 2821.9,-3690.6 L 2924.7,-3766.8 L 3074.4,-3855.2" stroke="#2B3A4A" stroke-width="170" fill="none" stroke-linecap="round" stroke-linejoin="round" />
    <path d="M 2423.9,-2511.8 L 2491.8,-2562.5 L 2547.8,-2624.9 L 2580.3,-2708.2 L 2586.9,-2803.0 L 2557.4,-2959.6 L 2547.9,-3028.6 L 2545.8,-3107.0 L 2552.4,-3226.4 L 2564.6,-3304.7 L 2589.4,-3386.9 L 2629.1,-3472.5 L 2680.9,-3552.3 L 2745.6,-3623.9 L 2821.9,-3690.6 L 2924.7,-3766.8 L 3074.4,-3855.2" stroke="#FAFAF7" stroke-width="34" fill="none" stroke-linecap="round" stroke-linejoin="round" />
    <path d="M 3074.4,-3855.2 L 3157.7,-3900.0 L 3209.2,-3925.6 L 3283.5,-3960.1 L 3362.4,-3996.9 L 3451.0,-4038.8 L 3584.9,-4104.7 L 3676.8,-4150.3 L 3741.2,-4182.4 L 3808.0,-4216.2 L 3899.3,-4262.9 L 3979.7,-4304.9 L 4068.8,-4352.6 L 4194.6,-4422.0 L 4283.2,-4471.1 L 4328.1,-4496.2" stroke="#2B3A4A" stroke-width="170" fill="none" stroke-linecap="round" stroke-linejoin="round" />
    <path d="M 3074.4,-3855.2 L 3157.7,-3900.0 L 3209.2,-3925.6 L 3283.5,-3960.1 L 3362.4,-3996.9 L 3451.0,-4038.8 L 3584.9,-4104.7 L 3676.8,-4150.3 L 3741.2,-4182.4 L 3808.0,-4216.2 L 3899.3,-4262.9 L 3979.7,-4304.9 L 4068.8,-4352.6 L 4194.6,-4422.0 L 4283.2,-4471.1 L 4328.1,-4496.2" stroke="#FAFAF7" stroke-width="34" fill="none" stroke-linecap="round" stroke-linejoin="round" />
    <path d="M 4328.1,-4496.2 L 4393.0,-4531.8 L 4476.6,-4577.2 L 4560.7,-4620.7 L 4645.5,-4662.4 L 4741.0,-4704.3 L 4834.9,-4738.5 L 4925.8,-4765.5 L 5019.7,-4777.4 L 5115.1,-4776.3 L 5209.0,-4758.2 L 5330.8,-4712.5 L 5457.3,-4654.4 L 5510.5,-4620.8 L 5563.5,-4587.3 L 5637.1,-4534.3 L 5727.4,-4457.4" stroke="#00A99D" stroke-width="170" fill="none" stroke-linecap="round" stroke-linejoin="round" />
    <path d="M 4328.1,-4496.2 L 4393.0,-4531.8 L 4476.6,-4577.2 L 4560.7,-4620.7 L 4645.5,-4662.4 L 4741.0,-4704.3 L 4834.9,-4738.5 L 4925.8,-4765.5 L 5019.7,-4777.4 L 5115.1,-4776.3 L 5209.0,-4758.2 L 5330.8,-4712.5 L 5457.3,-4654.4 L 5510.5,-4620.8 L 5563.5,-4587.3 L 5637.1,-4534.3 L 5727.4,-4457.4" stroke="#FAFAF7" stroke-width="34" fill="none" stroke-linecap="round" stroke-linejoin="round" />
    <path d="M 5727.4,-4457.4 L 5819.2,-4369.1 L 5898.0,-4276.0 L 5962.0,-4185.7 L 6019.6,-4097.4 L 6058.7,-4028.0 L 6088.9,-3966.9 L 6117.7,-3902.4 L 6146.4,-3830.9 L 6175.2,-3759.0 L 6205.8,-3674.9 L 6236.4,-3587.9 L 6260.2,-3508.6 L 6286.2,-3418.9 L 6312.6,-3327.2 L 6338.8,-3233.1 L 6369.0,-3123.1" stroke="#00A99D" stroke-width="170" fill="none" stroke-linecap="round" stroke-linejoin="round" />
    <path d="M 5727.4,-4457.4 L 5819.2,-4369.1 L 5898.0,-4276.0 L 5962.0,-4185.7 L 6019.6,-4097.4 L 6058.7,-4028.0 L 6088.9,-3966.9 L 6117.7,-3902.4 L 6146.4,-3830.9 L 6175.2,-3759.0 L 6205.8,-3674.9 L 6236.4,-3587.9 L 6260.2,-3508.6 L 6286.2,-3418.9 L 6312.6,-3327.2 L 6338.8,-3233.1 L 6369.0,-3123.1" stroke="#FAFAF7" stroke-width="34" fill="none" stroke-linecap="round" stroke-linejoin="round" />
  <line x1="6169.7" y1="-2868.3" x2="6669.7" y2="-3011.3" stroke="#2B2620" stroke-width="50" stroke-dasharray="70,50" />
  <polygon points="6694.7,-1978.3 6469.4,-2184.3 6777.0,-2272.3" fill="#2B2620" />
  <text x="5606.5" y="-3019.2" font-family="JetBrains Mono, monospace" font-size="280" fill="#2B2620" text-anchor="middle">START / FINISH</text>
  
    <circle cx="7361.1" cy="989.8" r="220" fill="#EDE3D0" stroke="#2B2620" stroke-width="26" />
    <text x="7361.1" y="1079.8" font-family="JetBrains Mono, monospace" font-size="240" font-weight="600" fill="#2B2620" text-anchor="middle">1</text>
    <circle cx="6471.7" cy="1886.2" r="220" fill="#EDE3D0" stroke="#2B2620" stroke-width="26" />
    <text x="6471.7" y="1976.2" font-family="JetBrains Mono, monospace" font-size="240" font-weight="600" fill="#2B2620" text-anchor="middle">2</text>
    <circle cx="5077.4" cy="-1608.0" r="220" fill="#EDE3D0" stroke="#2B2620" stroke-width="26" />
    <text x="5077.4" y="-1518.0" font-family="JetBrains Mono, monospace" font-size="240" font-weight="600" fill="#2B2620" text-anchor="middle">3</text>
    <circle cx="-1214.1" cy="3285.0" r="220" fill="#EDE3D0" stroke="#2B2620" stroke-width="26" />
    <text x="-1214.1" y="3375.0" font-family="JetBrains Mono, monospace" font-size="240" font-weight="600" fill="#2B2620" text-anchor="middle">4</text>
    <circle cx="-2943.2" cy="2541.1" r="220" fill="#EDE3D0" stroke="#2B2620" stroke-width="26" />
    <text x="-2943.2" y="2631.1" font-family="JetBrains Mono, monospace" font-size="240" font-weight="600" fill="#2B2620" text-anchor="middle">5</text>
    <circle cx="-3716.7" cy="3990.1" r="220" fill="#EDE3D0" stroke="#2B2620" stroke-width="26" />
    <text x="-3716.7" y="4080.1" font-family="JetBrains Mono, monospace" font-size="240" font-weight="600" fill="#2B2620" text-anchor="middle">6</text>
    <circle cx="-7212.9" cy="1532.7" r="220" fill="#EDE3D0" stroke="#2B2620" stroke-width="26" />
    <text x="-7212.9" y="1622.7" font-family="JetBrains Mono, monospace" font-size="240" font-weight="600" fill="#2B2620" text-anchor="middle">7</text>
    <circle cx="-6743.3" cy="258.3" r="220" fill="#EDE3D0" stroke="#2B2620" stroke-width="26" />
    <text x="-6743.3" y="348.3" font-family="JetBrains Mono, monospace" font-size="240" font-weight="600" fill="#2B2620" text-anchor="middle">8</text>
    <circle cx="-6102.3" cy="-2046.0" r="220" fill="#EDE3D0" stroke="#2B2620" stroke-width="26" />
    <text x="-6102.3" y="-1956.0" font-family="JetBrains Mono, monospace" font-size="240" font-weight="600" fill="#2B2620" text-anchor="middle">9</text>
    <circle cx="-2657.7" cy="1818.0" r="220" fill="#EDE3D0" stroke="#2B2620" stroke-width="26" />
    <text x="-2657.7" y="1908.0" font-family="JetBrains Mono, monospace" font-size="240" font-weight="600" fill="#2B2620" text-anchor="middle">10</text>
    <circle cx="2578.7" cy="-2854.6" r="220" fill="#EDE3D0" stroke="#2B2620" stroke-width="26" />
    <text x="2578.7" y="-2764.6" font-family="JetBrains Mono, monospace" font-size="240" font-weight="600" fill="#2B2620" text-anchor="middle">11</text>
    <circle cx="5451.3" cy="-4658.2" r="220" fill="#EDE3D0" stroke="#2B2620" stroke-width="26" />
    <text x="5451.3" y="-4568.2" font-family="JetBrains Mono, monospace" font-size="240" font-weight="600" fill="#2B2620" text-anchor="middle">12</text>
</svg>